<svg id="Layer_1" data-name="Layer 1" xmlns="http://www.w3.org/2000/svg" viewBox="0 0 72.78 72.78">
  <defs>
    <style>
      .cls-1 {
        fill: #101110;
      }

      .cls-2 {
        opacity: 0.2;
      }

      .cls-3 {
        fill: none;
        stroke: #232323;
        stroke-miterlimit: 10;
      }
    </style>
  </defs>
  <g id="Layer_1-2" data-name="Layer 1">
    <g>
      <circle class="cls-1" cx="21.39" cy="21.39" r="2"/>
      <circle class="cls-1" cx="27.39" cy="21.39" r="2"/>
      <circle class="cls-1" cx="33.39" cy="21.39" r="2"/>
      <path class="cls-1" d="M65.14,33.14a32,32,0,1,0,32,32A32,32,0,0,0,65.14,33.14Zm20,46a4,4,0,0,1-4,4h-32a4,4,0,0,1-4-4v-22h40Zm0-24.5h-40v-5.5a4,4,0,0,1,4-4h32a4,4,0,0,1,4,4Zm-4,22.5h-16v2h16Zm0-4h-16v2h16Zm0-4h-16v2h16Zm0-4h-16v2h16Zm0-4h-16v2h16Zm-20,0h-12v18h12Z" transform="translate(-28.75 -28.75)"/>
    </g>
    <g>
      <rect class="cls-1" x="20.39" y="32.39" width="12" height="18"/>
      <rect class="cls-1" x="36.39" y="32.39" width="16" height="2"/>
      <rect class="cls-1" x="36.39" y="36.39" width="16" height="2"/>
      <rect class="cls-1" x="36.39" y="40.39" width="16" height="2"/>
      <rect class="cls-1" x="36.39" y="44.39" width="16" height="2"/>
      <rect class="cls-1" x="36.39" y="48.39" width="16" height="2"/>
      <rect class="cls-1" x="16.39" y="25.89" width="40" height="2.5"/>
    </g>
    <g class="cls-2">
      <circle class="cls-1" cx="21.39" cy="21.39" r="2"/>
      <circle class="cls-1" cx="27.39" cy="21.39" r="2"/>
      <circle class="cls-1" cx="33.39" cy="21.39" r="2"/>
      <rect class="cls-1" x="16.39" y="25.89" width="40" height="2.5"/>
    </g>
    <g>
      <circle class="cls-1" cx="21.39" cy="21.39" r="2"/>
      <circle class="cls-1" cx="27.39" cy="21.39" r="2"/>
      <circle class="cls-1" cx="33.39" cy="21.39" r="2"/>
      <rect class="cls-1" x="16.39" y="25.89" width="40" height="0.5"/>
    </g>
    <circle class="cls-1" cx="27.39" cy="21.39" r="2"/>
    <circle class="cls-1" cx="33.39" cy="21.39" r="2"/>
    <circle class="cls-1" cx="21.39" cy="21.39" r="2"/>
    <rect class="cls-1" x="20.39" y="32.39" width="12" height="18"/>
    <rect class="cls-1" x="36.39" y="32.39" width="16" height="2"/>
    <rect class="cls-1" x="36.39" y="36.39" width="16" height="2"/>
    <rect class="cls-1" x="36.39" y="40.39" width="16" height="2"/>
    <rect class="cls-1" x="36.39" y="44.39" width="16" height="2"/>
    <rect class="cls-1" x="36.39" y="48.39" width="16" height="2"/>
  </g>
  <circle class="cls-3" cx="36.39" cy="36.39" r="35.89"/>
</svg>
