<svg xmlns="http://www.w3.org/2000/svg" xmlns:xlink="http://www.w3.org/1999/xlink" viewBox="0 0 277.12 103.39">
  <defs>
    <style>
      .cls-1 {
        fill: #12642d;
      }

      .cls-2 {
        opacity: 0.49;
        fill: url(#linear-gradient);
      }

      .cls-3 {
        opacity: 0.48;
      }

      .cls-4 {
        fill: url(#linear-gradient-2);
      }

      .cls-5 {
        fill: url(#linear-gradient-3);
      }

      .cls-6 {
        fill: url(#linear-gradient-4);
      }

      .cls-7 {
        fill: url(#linear-gradient-5);
      }

      .cls-8 {
        fill: url(#linear-gradient-6);
      }

      .cls-9 {
        fill: url(#linear-gradient-7);
      }

      .cls-10 {
        fill: #13642e;
      }
    </style>
    <linearGradient id="linear-gradient" x1="203.68" y1="260.89" x2="258.62" y2="207.34" gradientTransform="matrix(-0.71, -0.71, -0.71, 0.71, 376.87, 156.11)" gradientUnits="userSpaceOnUse">
      <stop offset="0" stop-color="#fff" stop-opacity="0"/>
      <stop offset="0.09" stop-color="#c8c8cf" stop-opacity="0.24"/>
      <stop offset="0.27" stop-color="#69697e" stop-opacity="0.66"/>
      <stop offset="0.44" stop-color="#30304d" stop-opacity="0.91"/>
      <stop offset="0.57" stop-color="#1c1c3c"/>
    </linearGradient>
    <linearGradient id="linear-gradient-2" x1="38.33" y1="76.64" x2="243.98" y2="80.48" gradientUnits="userSpaceOnUse">
      <stop offset="0" stop-color="#20323b"/>
      <stop offset="0.21" stop-color="#2e3e47" stop-opacity="0.94"/>
      <stop offset="0.39" stop-color="#57646b" stop-opacity="0.75"/>
      <stop offset="0.57" stop-color="#9ca4a8" stop-opacity="0.44"/>
      <stop offset="0.74" stop-color="#fdfdfd" stop-opacity="0.01"/>
      <stop offset="0.75" stop-color="#fff" stop-opacity="0"/>
    </linearGradient>
    <linearGradient id="linear-gradient-3" x1="78.26" y1="173.83" x2="283.91" y2="177.67" xlink:href="#linear-gradient-2"/>
    <linearGradient id="linear-gradient-4" x1="87.16" y1="180" x2="292.81" y2="183.84" xlink:href="#linear-gradient-2"/>
    <linearGradient id="linear-gradient-5" x1="95.17" y1="179.38" x2="300.82" y2="183.21" xlink:href="#linear-gradient-2"/>
    <linearGradient id="linear-gradient-6" x1="103.18" y1="178.79" x2="308.83" y2="182.63" xlink:href="#linear-gradient-2"/>
    <linearGradient id="linear-gradient-7" x1="111.35" y1="170.14" x2="316.99" y2="173.97" xlink:href="#linear-gradient-2"/>
  </defs>
  <g id="Layer_3" data-name="Layer 3">
    <g>
      <path class="cls-1" d="M94.85,141.25c-.68,0-1.29.07-1.87.07-9.82.05-19.65.05-29.44.13l-.28,8.23c0,.1,0,.2,0,.3s0,.26,0,.41q-.15,11.18-.13,22.35c0,3,.25,6.13.28,9.21,0,4.85,0,9.7.08,14.55,0,1.52-.28,2.78-1.77,3.43s-2.58,0-3.59-1.06c-7.47-7.52-15-15.05-22.47-22.6a11.75,11.75,0,0,1-3.56-7.88c-.08-1.51-.18-3-.18-4.52,0-6.89.07-13.81,0-20.71a32.84,32.84,0,0,1,10-24.77,29.86,29.86,0,0,1,5.28-4.16,16.94,16.94,0,0,0,32.73.22,32.52,32.52,0,0,1,8.48,7.8,36.78,36.78,0,0,1,4.82,9.37C94.37,134.63,95.38,137.81,94.85,141.25Z" transform="translate(-31.94 -97.82)"/>
      <path class="cls-1" d="M63.57,122a12.11,12.11,0,1,1,12.1-12.12A12.11,12.11,0,0,1,63.57,122Z" transform="translate(-31.94 -97.82)"/>
      <path class="cls-2" d="M32.14,168.39a11.33,11.33,0,0,0,3.57,7.88q11.22,11.31,22.48,22.61c1,1,2.11,1.68,3.57,1.05s1.79-1.91,1.77-3.44c-.07-4.85,0-9.69-.07-14.54,0-3.08-.28-6.15-.29-9.22,0-7.45,0-14.9.13-22.35,0-.14,0-.27,0-.39l0-.32.28-8.22-9.07.23a21.23,21.23,0,0,0-17,8.6A29.28,29.28,0,0,0,32.14,168.39Z" transform="translate(-31.94 -97.82)"/>
    </g>
    <polygon class="cls-1" points="38.7 58.59 47.94 58.59 47.94 95.2 38.7 95.2 38.7 102.5 64.86 102.5 64.86 95.2 55.69 95.2 55.69 58.59 64.86 58.59 64.86 51.29 38.7 51.29 38.7 58.59"/>
    <path class="cls-1" d="M122.52,191.39a5.89,5.89,0,0,1-1.51-4.18v-38.1h-7.75v37.24a15.53,15.53,0,0,0,1.61,7.11,12.39,12.39,0,0,0,4.6,5,13.17,13.17,0,0,0,7,1.84H140V193H126.51A5.15,5.15,0,0,1,122.52,191.39Z" transform="translate(-31.94 -97.82)"/>
    <path class="cls-1" d="M179.58,178.61a15.09,15.09,0,0,0-6.57-1.3H166.3a4.13,4.13,0,0,1-3.17-1.14,3.7,3.7,0,0,1-1.1-2.67,4,4,0,0,1,1.07-2.79,3.71,3.71,0,0,1,2.93-1.17h16.05v-6.87H165.41a10.41,10.41,0,0,0-5.64,1.55,11.62,11.62,0,0,0-3.72,15.39,9.56,9.56,0,0,0,4.16,3.69,14.15,14.15,0,0,0,6.09,1.24h7a4.68,4.68,0,0,1,2.41.59,3.61,3.61,0,0,1,1.44,1.54,4.61,4.61,0,0,1,.49,2.11,4.92,4.92,0,0,1-.55,2.28,4.4,4.4,0,0,1-1.6,1.72,4.67,4.67,0,0,1-2.53.66H155.72v6.88h18a10.76,10.76,0,0,0,6-1.67,11.77,11.77,0,0,0,4-4.32,13,13,0,0,0,0-11.86A9.39,9.39,0,0,0,179.58,178.61Z" transform="translate(-31.94 -97.82)"/>
    <path class="cls-1" d="M204.23,165.6a11.2,11.2,0,0,0-2.81,8v26.68h7.48V174.07a4.69,4.69,0,0,1,1.1-3.36,4,4,0,0,1,3.1-1.17h6.61v-6.87h-7.78A10.21,10.21,0,0,0,204.23,165.6Z" transform="translate(-31.94 -97.82)"/>
    <path class="cls-1" d="M260.54,164.4a18.18,18.18,0,0,0-9.81-2.58,19,19,0,0,0-10.16,2.62,17.52,17.52,0,0,0-6.51,7.09,21.82,21.82,0,0,0-2.26,10,23.6,23.6,0,0,0,2,9.9,17,17,0,0,0,5.89,7.14,15.71,15.71,0,0,0,9.08,2.63,14.9,14.9,0,0,0,6.33-1.26,14.7,14.7,0,0,0,4.53-3.24,20,20,0,0,0,1.89-2.41v6.06h7.54v-19a21.61,21.61,0,0,0-2.22-9.85A17.44,17.44,0,0,0,260.54,164.4Zm-16,6a10.48,10.48,0,0,1,6-1.68,10.11,10.11,0,0,1,5.77,1.65,10.86,10.86,0,0,1,3.79,4.5,15.24,15.24,0,0,1,1.34,6.51,15.41,15.41,0,0,1-1.41,6.69,11.1,11.1,0,0,1-3.89,4.61,10.14,10.14,0,0,1-5.74,1.65,10.29,10.29,0,0,1-6-1.68,10.85,10.85,0,0,1-3.76-4.57,16.82,16.82,0,0,1,0-13.11A10.89,10.89,0,0,1,244.58,170.37Z" transform="translate(-31.94 -97.82)"/>
    <path class="cls-1" d="M298,155a4,4,0,0,1,3.13-1.16h8V147h-9.21a10.25,10.25,0,0,0-7.71,2.93,11.21,11.21,0,0,0-2.8,8v4.74h-6.09v6.87h6.09v30.78h7.54V169.54h10.81v-6.87H296.88v-4.31A4.84,4.84,0,0,1,298,155Z" transform="translate(-31.94 -97.82)"/>
    <g class="cls-3">
      <polygon class="cls-4" points="38.7 58.59 47.94 58.59 47.94 95.2 38.7 95.2 38.7 102.5 64.86 102.5 64.86 95.2 55.69 95.2 55.69 58.59 64.86 58.59 64.86 51.29 38.7 51.29 38.7 58.59"/>
      <path class="cls-5" d="M122.51,191.36a5.89,5.89,0,0,1-1.51-4.18v-38.1h-7.75v37.24a15.56,15.56,0,0,0,1.61,7.11,12.39,12.39,0,0,0,4.6,5,13.17,13.17,0,0,0,7,1.84H140V193H126.5A5.15,5.15,0,0,1,122.51,191.36Z" transform="translate(-31.94 -97.82)"/>
      <path class="cls-6" d="M179.58,178.65a14.94,14.94,0,0,0-6.57-1.31H166.3a4.13,4.13,0,0,1-3.17-1.14,3.7,3.7,0,0,1-1.1-2.67,4,4,0,0,1,1.07-2.79,3.73,3.73,0,0,1,2.93-1.16h16.05V162.7H165.41a10.41,10.41,0,0,0-5.64,1.56,10.91,10.91,0,0,0-3.83,4,11.94,11.94,0,0,0,.11,11.35,9.56,9.56,0,0,0,4.16,3.69,14.3,14.3,0,0,0,6.09,1.23h7a4.58,4.58,0,0,1,2.41.6,3.53,3.53,0,0,1,1.44,1.53,4.61,4.61,0,0,1,.49,2.11,4.89,4.89,0,0,1-.55,2.28,4.36,4.36,0,0,1-1.6,1.73,4.76,4.76,0,0,1-2.53.66H155.72v6.87h18a10.83,10.83,0,0,0,6-1.66,11.88,11.88,0,0,0,4-4.33,12.07,12.07,0,0,0,1.44-5.77,12.24,12.24,0,0,0-1.42-6.09A9.31,9.31,0,0,0,179.58,178.65Z" transform="translate(-31.94 -97.82)"/>
      <path class="cls-7" d="M204.23,165.63a11.21,11.21,0,0,0-2.81,8v26.68h7.48V174.1a4.68,4.68,0,0,1,1.1-3.35,4,4,0,0,1,3.1-1.17h6.61V162.7h-7.78A10.21,10.21,0,0,0,204.23,165.63Z" transform="translate(-31.94 -97.82)"/>
      <path class="cls-8" d="M260.54,164.44a18.1,18.1,0,0,0-9.81-2.59,19,19,0,0,0-10.16,2.62,17.52,17.52,0,0,0-6.51,7.09,21.82,21.82,0,0,0-2.26,10,23.6,23.6,0,0,0,2,9.9,17,17,0,0,0,5.89,7.14,15.71,15.71,0,0,0,9.08,2.64,14.9,14.9,0,0,0,6.33-1.27,14.54,14.54,0,0,0,4.53-3.24,19.22,19.22,0,0,0,1.89-2.41v6.06h7.54v-19a21.61,21.61,0,0,0-2.22-9.85A17.35,17.35,0,0,0,260.54,164.44Zm-16,6a10.49,10.49,0,0,1,6-1.69,10.18,10.18,0,0,1,5.77,1.65,10.86,10.86,0,0,1,3.79,4.5,15.24,15.24,0,0,1,1.34,6.51,15.41,15.41,0,0,1-1.41,6.69,11.1,11.1,0,0,1-3.89,4.61,10.14,10.14,0,0,1-5.74,1.65,10.29,10.29,0,0,1-6-1.68,10.85,10.85,0,0,1-3.76-4.57,16.79,16.79,0,0,1,0-13.1A10.77,10.77,0,0,1,244.58,170.41Z" transform="translate(-31.94 -97.82)"/>
      <path class="cls-9" d="M298,155a4,4,0,0,1,3.13-1.16h8V147h-9.21a10.25,10.25,0,0,0-7.71,2.93,11.21,11.21,0,0,0-2.8,8v4.74h-6.09v6.87h6.09v30.78h7.54V169.54h10.81v-6.87H296.88v-4.31A4.84,4.84,0,0,1,298,155Z" transform="translate(-31.94 -97.82)"/>
    </g>
    <g>
      <path class="cls-10" d="M116.44,119.17h-4.28v12.37h4.28a6,6,0,0,0,6.35-6.33A6,6,0,0,0,116.44,119.17Zm5.17,6a4.9,4.9,0,0,1-5.17,5.19h-3.1V120.29h3.1A4.85,4.85,0,0,1,121.61,125.22Z" transform="translate(-31.94 -97.82)"/>
      <rect class="cls-10" x="114.77" y="21.36" width="1.16" height="12.36"/>
      <path class="cls-10" d="M177.32,126h4.29v3.23a5.45,5.45,0,0,1-3.62,1.34,5,5,0,0,1-5.32-5.21,5.29,5.29,0,0,1,1.51-3.86,5.24,5.24,0,0,1,3.81-1.43,5.67,5.67,0,0,1,3.87,1.53l.08.08.7-.76-.08-.08a6.83,6.83,0,0,0-9.25-.09,6.26,6.26,0,0,0-1.78,4.63,6,6,0,0,0,6.46,6.3,6.56,6.56,0,0,0,4.72-2l0,0V125h-5.42Z" transform="translate(-31.94 -97.82)"/>
      <rect class="cls-10" x="174.95" y="21.36" width="1.16" height="12.36"/>
      <polygon class="cls-10" points="200 22.43 204.44 22.43 204.44 33.72 205.62 33.72 205.62 22.43 210.06 22.43 210.06 21.37 200 21.37 200 22.43"/>
      <path class="cls-10" d="M270.84,119.17h-1.19l-5.54,12.21-.08.16h1.28l1.33-3h7.19l1.35,3h1.28l-5.59-12.3Zm2.52,8.29h-6.25l3.13-7Z" transform="translate(-31.94 -97.82)"/>
      <polygon class="cls-10" points="268.96 32.61 268.96 21.36 267.78 21.36 267.78 33.72 275.88 33.72 275.88 32.61 268.96 32.61"/>
    </g>
    <g>
      <polygon class="cls-10" points="126.49 43.56 122.24 53.89 121.23 53.89 119.33 49.06 117.82 45 116.32 49.02 114.39 53.89 113.38 53.89 109.17 43.56 110.17 43.56 113.86 52.96 117.55 43.56 118.08 43.56 121.75 52.96 125.47 43.56 126.49 43.56"/>
      <path class="cls-10" d="M187.75,142.64a6.58,6.58,0,0,0-4.36-1.41c-4.19,0-6.07,2.65-6.07,5.29s1.91,5.33,6.07,5.33,6.07-2.75,6.08-5.31A5,5,0,0,0,187.75,142.64Zm-4.36,8.48c-3.5,0-5.12-2.37-5.14-4.59a4.35,4.35,0,0,1,1.48-3.39,5.52,5.52,0,0,1,3.66-1.2c3.57,0,5.18,2.31,5.18,4.59S187,151.12,183.39,151.12Z" transform="translate(-31.94 -97.82)"/>
      <path class="cls-10" d="M214.84,147.73h.36a4.22,4.22,0,0,0,2.56-.91,2.82,2.82,0,0,0,1-2.17v0c0-1.54-1.26-3.21-4-3.21h-5.3v10.29h.94v-3.9h3.27l.05,0,4.11,3.85h1.22Zm-4.41-.7v-4.92h4.36a3.19,3.19,0,0,1,2.13.7,2.3,2.3,0,0,1,.8,1.76c0,1.57-1.13,2.46-3,2.46Z" transform="translate(-31.94 -97.82)"/>
      <polygon class="cls-10" points="214.97 53.81 214.97 53.85 213.78 53.85 207.46 48.79 207.46 53.84 206.52 53.84 206.52 43.56 207.46 43.56 207.46 48.25 213.3 43.56 214.42 43.56 214.42 43.62 208.51 48.38 208.36 48.49 214.97 53.81"/>
      <path class="cls-10" d="M274.86,149c0,2.66-3.64,2.88-4.76,2.88-1.75,0-4-.59-4.93-2.23l.83-.35c.72,1.22,2.61,1.86,4.1,1.86,1.14,0,3.82-.21,3.82-2.17,0-1.57-2-1.91-3.94-2.23-2.09-.34-4.46-.73-4.46-2.64a2.18,2.18,0,0,1,.78-1.75,6,6,0,0,1,3.8-1.09c1.82,0,3.26.3,4.4,1.74l-.76.39h0c-.86-1.2-2.25-1.38-3.63-1.39-.36,0-3.63.05-3.63,2.09,0,1.27,1.45,1.59,3.68,1.95l.13,0C272.53,146.4,274.86,146.78,274.86,149Z" transform="translate(-31.94 -97.82)"/>
    </g>
  </g>
</svg>
