<svg id="Layer_1" data-name="Layer 1" xmlns="http://www.w3.org/2000/svg" viewBox="0 0 72.78 72.78">
  <defs>
    <style>
      .cls-1 {
        fill: #1c1c1c;
      }

      .cls-2 {
        fill: none;
        stroke: #232323;
        stroke-miterlimit: 10;
      }
    </style>
  </defs>
  <path class="cls-1" d="M63.63,31.63a32,32,0,1,0,32,32A32,32,0,0,0,63.63,31.63Zm1.09,23.42a61.42,61.42,0,0,0-8,8.61l-6.24-6.24a18,18,0,0,0,8.39-8.23ZM50,45.89l8,2.74A17.13,17.13,0,0,1,50,56.55l-2.7-7.89L47,48l.11.23a5.23,5.23,0,0,0,2.35-2.53l-.23-.11Zm-1-.35A4.77,4.77,0,0,1,47,47.79l-1.14-3.34ZM60,75.71a6.63,6.63,0,0,1-1.14,1.53c-4.25,4.25-13,3.62-15.23,1.38,3-2,3.73-4.78,4.49-7h0A8,8,0,0,1,50,68.4a7.55,7.55,0,0,1,5.74-2.1,11.14,11.14,0,0,0,5.18,5.07A7.72,7.72,0,0,1,60,75.71Zm1.5-4.6v0a10.82,10.82,0,0,1-5.41-5.24,11,11,0,0,1,1-1.82h0c2.57-3.77,7.92-8.54,8-8.62h0c6.62-5.85,14.78-11.28,16.41-9.65S77.75,55.47,72,62.07h0c-.05.06-5,5.57-8.76,8.11l0,0A12.55,12.55,0,0,1,61.5,71.11Zm2.06-.6a61.18,61.18,0,0,0,8.64-8l5.11,5.12.71.7.58.58-8.1,8.53Zm18.56,5-5.2,5.19c-.86.87-2.51.61-3.68-.56l-.42-.42,8.1-8.53.64.64C82.73,73.05,83,74.7,82.12,75.56Z" transform="translate(-27.23 -27.23)"/>
  <circle class="cls-2" cx="36.39" cy="36.39" r="35.89"/>
</svg>
